<?xml version="1.0" encoding="windows-1252"?>
<!-- Generator: Adobe Illustrator 18.0.0, SVG Export Plug-In . SVG Version: 6.00 Build 0)  -->
<!DOCTYPE svg PUBLIC "-//W3C//DTD SVG 1.1//EN" "http://www.w3.org/Graphics/SVG/1.1/DTD/svg11.dtd">
<svg version="1.1" id="Capa_1" xmlns="http://www.w3.org/2000/svg" xmlns:xlink="http://www.w3.org/1999/xlink" x="0px" y="0px" viewBox="0 0 59.084 59.084" style="enable-background:new 0 0 59.084 59.084;" xml:space="preserve">
<g>
	<path class="icon" d="M16.974,26.493l-4.317,1.168c-0.533,0.144-0.848,0.693-0.704,1.226c0.121,0.446,0.524,0.739,0.965,0.739   c0.086,0,0.174-0.011,0.262-0.035l4.317-1.168c0.533-0.144,0.848-0.693,0.704-1.226C18.057,26.663,17.506,26.342,16.974,26.493z"/>
	<path d="M29.06,35.165l-3-1c-0.525-0.177-1.09,0.108-1.265,0.632c-0.175,0.524,0.108,1.091,0.632,1.265l3,1   c0.105,0.035,0.212,0.052,0.316,0.052c0.419,0,0.809-0.265,0.949-0.684C29.867,35.906,29.584,35.339,29.06,35.165z"/>
	<path d="M48.077,23.943c-0.552,0-1,0.447-1,1v4c0,0.553,0.448,1,1,1s1-0.447,1-1v-4C49.077,24.39,48.629,23.943,48.077,23.943z"/>
	<path d="M23.74,13.22c0.197,0.22,0.47,0.332,0.744,0.332c0.238,0,0.477-0.085,0.668-0.256c0.411-0.369,0.444-1.002,0.075-1.412   l-2.114-2.353c-0.369-0.41-1.001-0.444-1.412-0.076c-0.411,0.369-0.444,1.002-0.075,1.412L23.74,13.22z"/>
	<path d="M46.994,18.49l3,1c0.105,0.035,0.212,0.052,0.316,0.052c0.419,0,0.809-0.265,0.949-0.684   c0.175-0.524-0.108-1.091-0.632-1.265l-3-1c-0.525-0.178-1.09,0.108-1.265,0.632C46.187,17.75,46.47,18.317,46.994,18.49z"/>
	<path d="M36.512,30.891c-0.563-0.041-1.025,0.387-1.058,0.938L35.37,33.24c-0.033,0.552,0.387,1.025,0.938,1.058   c0.021,0.001,0.041,0.002,0.061,0.002c0.525,0,0.966-0.409,0.997-0.94l0.084-1.411C37.483,31.397,37.063,30.923,36.512,30.891z"/>
	<path d="M43.537,36.321c0.195,0.195,0.451,0.293,0.707,0.293s0.512-0.098,0.707-0.293c0.391-0.391,0.391-1.023,0-1.414l-1-1   c-0.391-0.391-1.023-0.391-1.414,0s-0.391,1.023,0,1.414L43.537,36.321z"/>
	<path d="M15.784,34.406c-0.391-0.391-1.023-0.391-1.414,0s-0.391,1.023,0,1.414l1,1c0.195,0.195,0.451,0.293,0.707,0.293   s0.512-0.098,0.707-0.293c0.391-0.391,0.391-1.023,0-1.414L15.784,34.406z"/>
	<path d="M44.273,14.582c0.015,0,0.03,0,0.045-0.001c0.552-0.024,0.979-0.491,0.955-1.043l-0.062-1.413   c-0.024-0.553-0.501-0.983-1.043-0.955c-0.552,0.024-0.979,0.491-0.955,1.043l0.062,1.413   C43.299,14.163,43.742,14.582,44.273,14.582z"/>
	<path d="M13.39,19.797c0.081,0,0.162-0.01,0.244-0.03c0.536-0.134,0.861-0.677,0.728-1.212l-1-4   c-0.134-0.537-0.679-0.861-1.213-0.728c-0.536,0.134-0.861,0.677-0.728,1.212l1,4C12.534,19.494,12.942,19.797,13.39,19.797z"/>
	<path d="M8.284,22.635c-0.391-0.391-1.023-0.391-1.414,0s-0.391,1.023,0,1.414l1,1c0.195,0.195,0.451,0.293,0.707,0.293   s0.512-0.098,0.707-0.293c0.391-0.391,0.391-1.023,0-1.414L8.284,22.635z"/>
	<path d="M36.703,14.082c0.195,0.195,0.451,0.293,0.707,0.293s0.512-0.098,0.707-0.293c0.391-0.391,0.391-1.023,0-1.414l-1-1   c-0.391-0.391-1.023-0.391-1.414,0c-0.391,0.391-0.391,1.023,0,1.414L36.703,14.082z"/>
	<path d="M59.079,27.424l-0.002-2.383c0-0.13-0.029-0.254-0.081-0.368c-0.003-0.122-0.016-0.242-0.022-0.364   c-0.008-0.174-0.017-0.349-0.031-0.522c-0.015-0.18-0.036-0.359-0.058-0.538c-0.021-0.174-0.041-0.348-0.068-0.52   c-0.027-0.176-0.061-0.35-0.094-0.525c-0.033-0.174-0.066-0.347-0.105-0.519c-0.039-0.171-0.084-0.34-0.128-0.51   c-0.045-0.173-0.09-0.345-0.141-0.516c-0.05-0.167-0.106-0.332-0.162-0.497c-0.057-0.171-0.114-0.342-0.177-0.511   c-0.061-0.162-0.127-0.323-0.193-0.483c-0.069-0.169-0.138-0.338-0.213-0.505c-0.071-0.158-0.148-0.313-0.224-0.47   c-0.081-0.167-0.161-0.333-0.248-0.498c-0.081-0.153-0.167-0.304-0.252-0.455c-0.093-0.164-0.184-0.329-0.283-0.491   c-0.09-0.149-0.186-0.295-0.281-0.442c-0.104-0.161-0.206-0.321-0.315-0.48c-0.1-0.145-0.206-0.287-0.31-0.43   c-0.114-0.156-0.227-0.313-0.347-0.468c-0.108-0.14-0.222-0.276-0.335-0.414c-0.125-0.154-0.25-0.307-0.38-0.458   c-0.116-0.133-0.237-0.264-0.357-0.396c-0.137-0.151-0.273-0.302-0.415-0.449c-0.124-0.129-0.253-0.254-0.381-0.381   c-0.146-0.145-0.291-0.291-0.442-0.433c-0.133-0.125-0.272-0.247-0.409-0.37c-0.155-0.139-0.308-0.279-0.468-0.416   c-0.141-0.12-0.288-0.237-0.433-0.355c-0.164-0.134-0.326-0.269-0.495-0.4c-0.149-0.115-0.303-0.227-0.455-0.34   c-0.173-0.128-0.344-0.257-0.521-0.382c-0.157-0.111-0.319-0.218-0.48-0.326c-0.18-0.122-0.359-0.245-0.543-0.363   c-0.163-0.105-0.332-0.205-0.499-0.308c-0.189-0.116-0.377-0.234-0.57-0.346c-0.171-0.1-0.347-0.195-0.522-0.292   c-0.195-0.109-0.389-0.219-0.588-0.325c-0.181-0.096-0.367-0.186-0.551-0.279c-0.2-0.101-0.398-0.203-0.602-0.301   c-0.188-0.09-0.381-0.175-0.573-0.262c-0.206-0.094-0.41-0.189-0.619-0.279c-0.198-0.085-0.4-0.164-0.601-0.246   c-0.209-0.085-0.416-0.173-0.629-0.255c-0.206-0.079-0.416-0.152-0.624-0.228c-0.214-0.078-0.426-0.158-0.642-0.232   c-0.216-0.073-0.436-0.141-0.654-0.211c-0.215-0.069-0.427-0.14-0.644-0.205c-0.224-0.067-0.453-0.128-0.68-0.191   c-0.218-0.061-0.434-0.125-0.655-0.182c-0.232-0.06-0.468-0.113-0.703-0.17c-0.22-0.053-0.437-0.108-0.659-0.157   c-0.246-0.054-0.496-0.101-0.744-0.151c-0.216-0.043-0.43-0.09-0.648-0.13c-0.257-0.047-0.519-0.086-0.778-0.128   c-0.214-0.035-0.425-0.073-0.64-0.104c-0.269-0.039-0.543-0.07-0.815-0.104c-0.21-0.026-0.418-0.056-0.629-0.079   c-0.294-0.032-0.593-0.055-0.89-0.081c-0.192-0.017-0.383-0.038-0.576-0.052c-0.346-0.025-0.696-0.041-1.046-0.057   c-0.148-0.007-0.294-0.018-0.442-0.024c-0.5-0.018-1.003-0.027-1.509-0.027c-16.266,0-29.5,9.421-29.5,21   c0,0.833,0.077,6.5,0.077,6.5c0,0.037,0.009,0.072,0.011,0.108l0.005,2.829c0,11.53,12.917,20.563,29.408,20.563   c16.313,0,29.584-9.406,29.584-20.969l-0.005-5.949C59.081,27.882,59.082,27.652,59.079,27.424z M57,25.042   c0,0.184,0.012,0.459,0.028,0.803c0.018,0.401,0.044,0.966,0.051,1.613l0,0.591c-0.018,1.924-0.243,4.307-1.253,5.407   c-0.348,0.379-0.758,0.565-1.289,0.587c-0.117-0.01-0.237-0.063-0.298-0.122c-0.104-0.1-0.163-0.237-0.163-0.379   c0-0.553-0.448-1-1-1s-1,0.447-1,1v3c0,0.271-0.229,0.5-0.5,0.5s-0.5-0.229-0.5-0.5c0-0.553-0.448-1-1-1s-1,0.447-1,1v4   c0,0.271-0.229,0.5-0.5,0.5s-0.5-0.229-0.5-0.5v-1c0-0.553-0.448-1-1-1s-1,0.447-1,1c0,0.271-0.229,0.5-0.5,0.5s-0.5-0.229-0.5-0.5   c0-0.553-0.448-1-1-1s-1,0.447-1,1v5c0,0.271-0.229,0.5-0.5,0.5s-0.5-0.229-0.5-0.5v-3.5c0-0.553-0.448-1-1-1s-1,0.447-1,1   c0,0.552-0.449,1-1,1s-1-0.448-1-1c0-0.553-0.448-1-1-1s-1,0.447-1,1v3.5c0,0.271-0.229,0.5-0.5,0.5s-0.5-0.229-0.5-0.5v-1.5   c0-0.553-0.448-1-1-1s-1,0.447-1,1c0,0.552-0.449,1-1,1s-1-0.448-1-1c0-0.553-0.448-1-1-1s-1,0.447-1,1v4c0,0.552-0.449,1-1,1   s-1-0.448-1-1v-3.5c0-0.553-0.448-1-1-1s-1,0.447-1,1c0,0.271-0.229,0.5-0.5,0.5s-0.5-0.229-0.5-0.5c0-0.553-0.448-1-1-1   s-1,0.447-1,1v1.5c0,0.552-0.449,1-1,1s-1-0.448-1-1v-3.5c0-0.553-0.448-1-1-1s-1,0.447-1,1c0,0.271-0.229,0.5-0.5,0.5   s-0.5-0.229-0.5-0.5c0-0.553-0.448-1-1-1s-1,0.447-1,1v2c0,0.271-0.229,0.5-0.5,0.5s-0.5-0.229-0.5-0.5v-5c0-0.553-0.448-1-1-1   s-1,0.447-1,1c0,0.271-0.229,0.5-0.5,0.5s-0.5-0.229-0.5-0.5c0-0.553-0.448-1-1-1s-1,0.447-1,1v2c0,0.271-0.229,0.5-0.5,0.5   s-0.5-0.229-0.5-0.5v-4c0-0.553-0.448-1-1-1s-1,0.447-1,1c0,0.271-0.229,0.5-0.5,0.5s-0.5-0.229-0.5-0.5v-4.821   c0-0.25-0.11-0.509-0.279-0.693c-0.265-0.288-0.675-0.395-1.048-0.274c-0.373,0.122-0.64,0.451-0.683,0.842   c-0.027,0.251-0.243,0.447-0.49,0.447c-0.253,0-0.461-0.201-0.489-0.459c-0.005-2.775-0.011-6.541-0.011-6.541   c0-10.477,12.302-19,27.423-19C44.664,6.042,57,14.566,57,25.042z M29.5,53.042c-15.369,0-27.408-8.153-27.408-18.563   c0,0,0-0.186-0.001-0.487c0.157,0.031,0.319,0.049,0.485,0.049c0.171,0,0.338-0.018,0.5-0.051v2.551c0,1.379,1.122,2.5,2.5,2.5   c0.171,0,0.338-0.018,0.5-0.05v1.55c0,1.379,1.122,2.5,2.5,2.5c1.228,0,2.252-0.89,2.461-2.059   c0.335,0.073,0.703,0.075,1.039,0.009v2.55c0,1.379,1.122,2.5,2.5,2.5c1.228,0,2.252-0.89,2.461-2.059   c0.334,0.073,0.703,0.076,1.039,0.009v1.05c0,1.654,1.346,3,3,3c1.335,0,2.469-0.876,2.857-2.084   c0.363,0.098,0.772,0.108,1.143,0.034v1.05c0,1.654,1.346,3,3,3s3-1.346,3-3v-1.171c0.731,0.258,1.616,0.207,2.307-0.129   c0.425,0.773,1.249,1.3,2.193,1.3c1.378,0,2.5-1.121,2.5-2.5v-0.671c0.626,0.221,1.374,0.221,2,0v0.671c0,1.379,1.122,2.5,2.5,2.5   s2.5-1.121,2.5-2.5v-2.55c0.456,0.091,0.961,0.05,1.388-0.113c0.444,0.698,1.225,1.163,2.112,1.163c1.378,0,2.5-1.121,2.5-2.5   v-1.55c0.162,0.032,0.329,0.05,0.5,0.05c1.378,0,2.5-1.121,2.5-2.5v-0.541c0.175,0.034,0.354,0.043,0.54,0.04   c0.951-0.037,1.762-0.387,2.433-1.007C56.319,45.049,44.241,53.042,29.5,53.042z"/>
	<path d="M19.077,24.042c0,0.696,0.173,1.396,0.506,2.084c0.011,0.028,0.009,0.058,0.023,0.085c1.442,2.89,5.65,4.831,10.472,4.831   c4.822,0,9.03-1.941,10.472-4.831c0.013-0.027,0.012-0.057,0.023-0.085c0.333-0.688,0.505-1.388,0.505-2.084c0-3.925-4.832-7-11-7   S19.077,20.117,19.077,24.042z M22.018,26.224c0.024-0.009,0.049-0.016,0.073-0.025c0.532-0.197,1.082-0.369,1.644-0.524   c0.08-0.022,0.158-0.047,0.238-0.068c0.562-0.148,1.139-0.271,1.726-0.376c0.115-0.021,0.229-0.041,0.345-0.06   c0.588-0.096,1.185-0.174,1.792-0.227c0.099-0.009,0.2-0.014,0.299-0.022c0.64-0.049,1.287-0.08,1.943-0.08   c0.655,0,1.302,0.032,1.943,0.08c0.1,0.008,0.2,0.013,0.299,0.022c0.607,0.053,1.204,0.131,1.792,0.227   c0.115,0.019,0.23,0.039,0.345,0.06c0.586,0.105,1.163,0.229,1.725,0.376c0.081,0.021,0.159,0.046,0.239,0.068   c0.562,0.155,1.112,0.328,1.643,0.524c0.024,0.009,0.049,0.016,0.073,0.025c-1.512,1.696-4.622,2.818-8.059,2.818   C26.639,29.042,23.529,27.921,22.018,26.224z M30.077,19.042c4.878,0,9,2.29,9,5c0,0.129-0.01,0.257-0.031,0.387   c-0.008-0.003-0.017-0.005-0.025-0.008c-0.612-0.235-1.247-0.44-1.895-0.624c-0.096-0.027-0.191-0.056-0.287-0.082   c-0.628-0.169-1.27-0.313-1.925-0.433c-0.117-0.021-0.234-0.041-0.351-0.061c-0.661-0.112-1.332-0.202-2.014-0.264   c-0.096-0.009-0.193-0.013-0.29-0.021c-0.719-0.057-1.445-0.093-2.181-0.093c-0.735,0-1.461,0.036-2.18,0.093   c-0.097,0.008-0.194,0.012-0.29,0.021c-0.682,0.062-1.352,0.152-2.013,0.264c-0.118,0.02-0.235,0.04-0.353,0.062   c-0.654,0.12-1.296,0.264-1.923,0.433c-0.098,0.026-0.194,0.056-0.291,0.083c-0.647,0.183-1.28,0.387-1.891,0.622   c-0.009,0.003-0.018,0.005-0.027,0.009c-0.021-0.13-0.031-0.258-0.031-0.387C21.077,21.332,25.198,19.042,30.077,19.042z"/>
</g>
<g>
</g>
<g>
</g>
<g>
</g>
<g>
</g>
<g>
</g>
<g>
</g>
<g>
</g>
<g>
</g>
<g>
</g>
<g>
</g>
<g>
</g>
<g>
</g>
<g>
</g>
<g>
</g>
<g>
</g>
</svg>