<?xml version="1.0" encoding="windows-1252"?>
<!-- Generator: Adobe Illustrator 18.0.0, SVG Export Plug-In . SVG Version: 6.00 Build 0)  -->
<!DOCTYPE svg PUBLIC "-//W3C//DTD SVG 1.1//EN" "http://www.w3.org/Graphics/SVG/1.1/DTD/svg11.dtd">
<svg version="1.1" id="Capa_1" xmlns="http://www.w3.org/2000/svg" xmlns:xlink="http://www.w3.org/1999/xlink" x="0px" y="0px" viewBox="0 0 55 55" style="enable-background:new 0 0 55 55;" xml:space="preserve">
<g>
	<path d="M36.445,15.832C36.616,15.945,36.809,16,36.999,16c0.323,0,0.64-0.156,0.833-0.445c0.306-0.46,0.182-1.08-0.277-1.387l-3-2   c-0.46-0.307-1.081-0.182-1.387,0.277c-0.306,0.46-0.182,1.08,0.277,1.387L36.445,15.832z"/>
	<path d="M22.553,11.895C22.696,11.966,22.849,12,22.999,12c0.367,0,0.72-0.202,0.896-0.553l1-2   c0.247-0.494,0.047-1.095-0.447-1.342c-0.496-0.245-1.095-0.047-1.342,0.447l-1,2C21.858,11.047,22.059,11.647,22.553,11.895z"/>
	<path d="M11.553,14.895C11.696,14.966,11.849,15,11.999,15c0.367,0,0.72-0.202,0.896-0.553l1-2   c0.247-0.494,0.047-1.095-0.447-1.342c-0.495-0.246-1.095-0.046-1.342,0.447l-1,2C10.858,14.047,11.059,14.647,11.553,14.895z"/>
	<path d="M12.555,40.168c-0.461-0.307-1.081-0.183-1.387,0.277s-0.182,1.08,0.277,1.387l3,2C14.616,43.945,14.809,44,14.999,44   c0.323,0,0.64-0.156,0.833-0.445c0.306-0.46,0.182-1.08-0.277-1.387L12.555,40.168z"/>
	<path d="M25.895,42.553c-0.247-0.494-0.847-0.692-1.342-0.447c-0.494,0.247-0.694,0.848-0.447,1.342l1,2   C25.281,45.798,25.634,46,26.001,46c0.15,0,0.303-0.034,0.446-0.105c0.494-0.247,0.694-0.848,0.447-1.342L25.895,42.553z"/>
	<path d="M34.447,38.105c-0.496-0.246-1.095-0.046-1.342,0.447l-1,2c-0.247,0.494-0.047,1.095,0.447,1.342   C32.696,41.966,32.849,42,32.999,42c0.367,0,0.72-0.202,0.896-0.553l1-2C35.142,38.953,34.941,38.353,34.447,38.105z"/>
	<path d="M52,28H3c-1.654,0-3,1.346-3,3v1c0,0.594,0.179,1.072,0.531,1.422c0.595,0.591,1.422,0.588,2.223,0.579L40,34v1H5.034   c-1.654,0-3,1.346-3,3l0.013,0.162C2.067,38.28,4.132,50,16,50h22c11.868,0,13.933-11.72,13.952-11.838L51.966,38   c0-1.654-1.346-3-3-3H46v-1l6.246,0.001c0.801,0.007,1.628,0.012,2.223-0.579C54.821,33.072,55,32.594,55,32v-1   C55,29.346,53.654,28,52,28z M48.966,37c0.527,0,0.96,0.41,0.997,0.928C49.765,38.996,47.794,48,38,48H16   C6.245,48,4.24,38.996,4.037,37.926C4.075,37.409,4.508,37,5.034,37H40v2c0,1.654,1.346,3,3,3s3-1.346,3-3v-2H48.966z M53,31.981   c-0.19,0.023-0.511,0.021-0.739,0.02L44,32v3v4c0,0.552-0.449,1-1,1s-1-0.448-1-1v-4v-3H3l-0.261,0.001   C2.511,32.004,2.191,32.006,2,31.981V31c0-0.552,0.449-1,1-1h49c0.552,0,1,0.448,1,1V31.981z"/>
	<path d="M6,27.002c1.177,0,2.259-0.514,3-1.353c0.742,0.839,1.823,1.353,3,1.353s2.259-0.514,3-1.353   c0.742,0.839,1.823,1.353,3,1.353s2.259-0.514,3-1.353c0.742,0.839,1.823,1.353,3,1.353s2.259-0.514,3-1.353   c0.742,0.839,1.823,1.353,3,1.353s2.259-0.514,3-1.353c0.742,0.839,1.823,1.353,3,1.353s2.259-0.514,3-1.353   c0.742,0.839,1.823,1.353,3,1.353c1.178,0,2.26-0.515,3-1.353c0.741,0.839,1.823,1.353,3,1.353c2.206,0,4-1.795,4-4.008l-0.034-6h0   l-0.013-0.156C51.933,16.72,49.868,5,38,5H16C4.132,5,2.067,16.72,2.047,16.838l-0.013,0.156h0L2,23.002   C2,25.208,3.794,27.002,6,27.002z M48,25.002c-0.91,0-1.706-0.613-1.936-1.496c-0.129-0.484-0.566-0.823-1.064-0.823   s-0.936,0.339-1.065,0.828c-0.229,0.878-1.024,1.491-1.935,1.491s-1.706-0.613-1.936-1.492C39.937,23.022,39.5,22.683,39,22.683   s-0.938,0.34-1.065,0.827c-0.229,0.879-1.025,1.492-1.935,1.492s-1.706-0.613-1.936-1.492C33.937,23.022,33.5,22.683,33,22.683   s-0.938,0.34-1.065,0.827c-0.229,0.879-1.025,1.492-1.935,1.492s-1.706-0.613-1.936-1.492C27.937,23.022,27.5,22.683,27,22.683   s-0.938,0.34-1.065,0.827c-0.229,0.879-1.025,1.492-1.935,1.492s-1.706-0.613-1.936-1.492C21.937,23.022,21.5,22.683,21,22.683   s-0.938,0.34-1.065,0.827c-0.229,0.879-1.025,1.492-1.935,1.492s-1.706-0.613-1.936-1.492C15.937,23.022,15.5,22.683,15,22.683   s-0.938,0.34-1.065,0.827c-0.229,0.879-1.025,1.492-1.935,1.492s-1.706-0.613-1.936-1.492C9.937,23.022,9.5,22.683,9,22.683   s-0.938,0.34-1.065,0.827C7.706,24.389,6.91,25.002,6,25.002c-1.103,0-2-0.898-2-1.996l0.018-3.183   c0.089,0.032,0.185,0.05,0.278,0.074c0.058,0.015,0.113,0.034,0.172,0.046C4.651,19.978,4.84,20,5.034,20h43.932   c0.194,0,0.383-0.022,0.567-0.057c0.06-0.011,0.116-0.031,0.174-0.046c0.092-0.024,0.186-0.041,0.275-0.073L50,23.002   C50,24.104,49.103,25.002,48,25.002z M16,7h22c9.694,0,11.732,8.882,11.957,10.045c-0.003,0.073-0.024,0.14-0.042,0.208   c-0.014,0.053-0.02,0.109-0.043,0.159c-0.03,0.067-0.078,0.122-0.121,0.18c-0.031,0.042-0.055,0.089-0.093,0.125   c-0.057,0.055-0.128,0.093-0.197,0.133c-0.039,0.023-0.072,0.056-0.115,0.073C49.229,17.972,49.101,18,48.966,18H5.034   c-0.135,0-0.263-0.028-0.38-0.077c-0.042-0.017-0.073-0.049-0.112-0.072c-0.07-0.041-0.142-0.079-0.2-0.135   c-0.037-0.036-0.06-0.083-0.091-0.124c-0.044-0.059-0.092-0.115-0.123-0.182c-0.022-0.048-0.028-0.103-0.042-0.155   c-0.019-0.07-0.04-0.138-0.043-0.213C4.264,15.88,6.269,7,16,7z"/>
</g>
<g>
</g>
<g>
</g>
<g>
</g>
<g>
</g>
<g>
</g>
<g>
</g>
<g>
</g>
<g>
</g>
<g>
</g>
<g>
</g>
<g>
</g>
<g>
</g>
<g>
</g>
<g>
</g>
<g>
</g>
</svg>